<svg width="50" height="50" viewBox="0 0 50 50" fill="none" xmlns="http://www.w3.org/2000/svg">
<g clip-path="url(#clip0_621_213)">
<path d="M24.5729 43.75H10.4167C9.3116 43.75 8.25179 43.311 7.47039 42.5296C6.68899 41.7482 6.25 40.6884 6.25 39.5833V14.5833C6.25 13.4783 6.68899 12.4184 7.47039 11.637C8.25179 10.8556 9.3116 10.4167 10.4167 10.4167H35.4167C36.5217 10.4167 37.5815 10.8556 38.3629 11.637C39.1443 12.4184 39.5833 13.4783 39.5833 14.5833V22.9167" stroke="#2B4360" stroke-width="5" stroke-linecap="round" stroke-linejoin="round"/>
<path d="M29.167 37.5C29.167 39.7101 30.045 41.8297 31.6078 43.3925C33.1706 44.9553 35.2902 45.8333 37.5003 45.8333C39.7105 45.8333 41.8301 44.9553 43.3929 43.3925C44.9557 41.8297 45.8337 39.7101 45.8337 37.5C45.8337 35.2899 44.9557 33.1702 43.3929 31.6074C41.8301 30.0446 39.7105 29.1667 37.5003 29.1667C35.2902 29.1667 33.1706 30.0446 31.6078 31.6074C30.045 33.1702 29.167 35.2899 29.167 37.5Z" stroke="#2B4360" stroke-width="5" stroke-linecap="round" stroke-linejoin="round"/>
<path d="M31.25 6.25V14.5833" stroke="#2B4360" stroke-width="5" stroke-linecap="round" stroke-linejoin="round"/>
<path d="M14.583 6.25V14.5833" stroke="#2B4360" stroke-width="5" stroke-linecap="round" stroke-linejoin="round"/>
<path d="M6.25 22.9167H39.5833" stroke="#2B4360" stroke-width="5" stroke-linecap="round" stroke-linejoin="round"/>
<path d="M37.5 34.3667V37.5L39.5833 39.5833" stroke="#2B4360" stroke-width="5" stroke-linecap="round" stroke-linejoin="round"/>
</g>
<defs>
<clipPath id="clip0_621_213">
<rect width="50" height="50" fill="white"/>
</clipPath>
</defs>
</svg>
