<svg width="50" height="50" viewBox="0 0 50 50" fill="none" xmlns="http://www.w3.org/2000/svg">
<g clip-path="url(#clip0_621_54)">
<path d="M33.333 35.4167C33.333 36.5217 33.772 37.5815 34.5534 38.3629C35.3348 39.1443 36.3946 39.5833 37.4997 39.5833C38.6047 39.5833 39.6646 39.1443 40.446 38.3629C41.2274 37.5815 41.6663 36.5217 41.6663 35.4167C41.6663 34.3116 41.2274 33.2518 40.446 32.4704C39.6646 31.689 38.6047 31.25 37.4997 31.25C36.3946 31.25 35.3348 31.689 34.5534 32.4704C33.772 33.2518 33.333 34.3116 33.333 35.4167Z" stroke="#2B4360" stroke-width="5" stroke-linecap="round" stroke-linejoin="round"/>
<path d="M8.33301 35.4167C8.33301 36.5217 8.77199 37.5815 9.5534 38.3629C10.3348 39.1443 11.3946 39.5833 12.4997 39.5833C13.6047 39.5833 14.6646 39.1443 15.446 38.3629C16.2274 37.5815 16.6663 36.5217 16.6663 35.4167C16.6663 34.3116 16.2274 33.2518 15.446 32.4704C14.6646 31.689 13.6047 31.25 12.4997 31.25C11.3946 31.25 10.3348 31.689 9.5534 32.4704C8.77199 33.2518 8.33301 34.3116 8.33301 35.4167Z" stroke="#2B4360" stroke-width="5" stroke-linecap="round" stroke-linejoin="round"/>
<path d="M16.667 35.4167H27.0837C27.4931 32.801 28.7224 30.3829 30.5945 28.5108C32.4665 26.6387 34.8847 25.4094 37.5003 25V14.5833C37.5003 13.4783 37.0613 12.4184 36.2799 11.637C35.4985 10.8556 34.4387 10.4167 33.3337 10.4167H31.2503" stroke="#2B4360" stroke-width="5" stroke-linecap="round" stroke-linejoin="round"/>
<path d="M20.8337 8.33334L16.667 16.6667H22.917L18.7503 25" stroke="#2B4360" stroke-width="5" stroke-linecap="round" stroke-linejoin="round"/>
</g>
<defs>
<clipPath id="clip0_621_54">
<rect width="50" height="50" fill="white"/>
</clipPath>
</defs>
</svg>
