<svg width="41" height="41" viewBox="0 0 41 41" fill="none" xmlns="http://www.w3.org/2000/svg">
<g clip-path="url(#clip0_613_26)">
<path d="M30.75 3.41666C31.1684 3.41671 31.5723 3.57033 31.885 3.84838C32.1977 4.12643 32.3974 4.50956 32.4464 4.92511L32.4583 5.12499V11.9583C32.4583 12.3768 32.3047 12.7806 32.0266 13.0933C31.7486 13.406 31.3654 13.6057 30.9499 13.6547L30.75 13.6667H25.625V15.375H30.75C30.9932 15.3751 31.2336 15.4271 31.455 15.5275C31.6765 15.628 31.874 15.7746 32.0342 15.9575C32.1945 16.1404 32.3139 16.3554 32.3843 16.5882C32.4548 16.8209 32.4748 17.066 32.443 17.3071L32.4088 17.4984L30.7005 24.3318C30.6157 24.6692 30.4299 24.9727 30.1679 25.2016C29.906 25.4306 29.5804 25.5741 29.2347 25.613L29.0417 25.625H25.625V35.875C25.6249 36.2934 25.4713 36.6973 25.1933 37.01C24.9152 37.3226 24.5321 37.5224 24.1165 37.5714L23.9167 37.5833H17.0833C16.6649 37.5833 16.261 37.4296 15.9484 37.1516C15.6357 36.8736 15.4359 36.4904 15.387 36.0749L15.375 35.875V25.625H11.9583C11.5399 25.6249 11.136 25.4713 10.8234 25.1933C10.5107 24.9152 10.3109 24.5321 10.262 24.1165L10.25 23.9167V17.0833C10.2501 16.6649 10.4037 16.261 10.6817 15.9484C10.9598 15.6357 11.3429 15.4359 11.7585 15.3869L11.9583 15.375H15.375V13.6667C15.3749 11.0147 16.4027 8.46587 18.2424 6.55577C20.0821 4.64566 22.5905 3.52294 25.2406 3.42349L25.625 3.41666H30.75Z" fill="#4A6A4A"/>
</g>
<defs>
<clipPath id="clip0_613_26">
<rect width="41" height="41" fill="white"/>
</clipPath>
</defs>
</svg>
