<svg width="50" height="50" viewBox="0 0 50 50" fill="none" xmlns="http://www.w3.org/2000/svg">
<g clip-path="url(#clip0_621_71)">
<path d="M25 43.75C22.5377 43.75 20.0995 43.265 17.8247 42.3227C15.5498 41.3805 13.4828 39.9993 11.7417 38.2582C10.0006 36.5172 8.61953 34.4502 7.67726 32.1753C6.73498 29.9005 6.25 27.4623 6.25 25C6.25 22.5377 6.73498 20.0995 7.67726 17.8247C8.61953 15.5498 10.0006 13.4828 11.7417 11.7417C13.4828 10.0006 15.5498 8.61953 17.8247 7.67726C20.0995 6.73498 22.5377 6.25 25 6.25C29.9728 6.25 34.7419 8.22544 38.2582 11.7417C41.7746 15.2581 43.75 20.0272 43.75 25C43.75 29.9728 41.7746 34.7419 38.2582 38.2582C34.7419 41.7746 29.9728 43.75 25 43.75Z" stroke="#2B4360" stroke-width="5" stroke-linecap="round" stroke-linejoin="round"/>
<path d="M20.833 20.8333C19.7913 18.75 15.6247 18.75 14.583 20.8333" stroke="#2B4360" stroke-width="5" stroke-linecap="round" stroke-linejoin="round"/>
<path d="M35.417 20.8333C34.3753 18.75 30.2087 18.75 29.167 20.8333" stroke="#2B4360" stroke-width="5" stroke-linecap="round" stroke-linejoin="round"/>
<path d="M30.2087 31.25C29.5297 31.9429 28.7194 32.4934 27.8251 32.8692C26.9307 33.245 25.9704 33.4386 25.0003 33.4386C24.0302 33.4386 23.0699 33.245 22.1756 32.8692C21.2813 32.4934 20.4709 31.9429 19.792 31.25" stroke="#2B4360" stroke-width="5" stroke-linecap="round" stroke-linejoin="round"/>
</g>
<defs>
<clipPath id="clip0_621_71">
<rect width="50" height="50" fill="white"/>
</clipPath>
</defs>
</svg>
