<svg width="41" height="41" viewBox="0 0 41 41" fill="none" xmlns="http://www.w3.org/2000/svg">
<g clip-path="url(#clip0_613_30)">
<path d="M27.3333 5.125C29.5987 5.125 31.7713 6.02492 33.3732 7.6268C34.9751 9.22867 35.875 11.4013 35.875 13.6667V27.3333C35.875 29.5987 34.9751 31.7713 33.3732 33.3732C31.7713 34.9751 29.5987 35.875 27.3333 35.875H13.6667C11.4013 35.875 9.22867 34.9751 7.6268 33.3732C6.02492 31.7713 5.125 29.5987 5.125 27.3333V13.6667C5.125 11.4013 6.02492 9.22867 7.6268 7.6268C9.22867 6.02492 11.4013 5.125 13.6667 5.125H27.3333ZM20.5 13.6667C18.7468 13.6667 17.0607 14.3405 15.7904 15.5488C14.5202 16.7571 13.7629 18.4074 13.6752 20.1583L13.6667 20.5C13.6667 21.8515 14.0674 23.1727 14.8183 24.2964C15.5691 25.4201 16.6364 26.296 17.885 26.8132C19.1336 27.3304 20.5076 27.4657 21.8331 27.202C23.1587 26.9384 24.3762 26.2876 25.3319 25.3319C26.2876 24.3762 26.9384 23.1587 27.202 21.8331C27.4657 20.5076 27.3304 19.1336 26.8132 17.885C26.296 16.6364 25.4201 15.5691 24.2964 14.8183C23.1727 14.0674 21.8515 13.6667 20.5 13.6667ZM28.1875 11.1042C27.7691 11.1042 27.3652 11.2578 27.0525 11.5359C26.7398 11.8139 26.5401 12.1971 26.4911 12.6126L26.4792 12.8296C26.4797 13.265 26.6464 13.6838 26.9453 14.0004C27.2442 14.317 27.6527 14.5076 28.0874 14.5331C28.5221 14.5586 28.9501 14.4172 29.284 14.1377C29.6179 13.8582 29.8324 13.4618 29.8839 13.0295L29.8958 12.8125C29.8958 12.3594 29.7159 11.9249 29.3955 11.6045C29.0751 11.2842 28.6406 11.1042 28.1875 11.1042Z" fill="#4A6A4A"/>
</g>
<defs>
<clipPath id="clip0_613_30">
<rect width="41" height="41" fill="white"/>
</clipPath>
</defs>
</svg>
