<svg width="50" height="50" viewBox="0 0 50 50" fill="none" xmlns="http://www.w3.org/2000/svg">
<g clip-path="url(#clip0_621_41)">
<path d="M17.1726 15.2917L3.88088 17.2187L3.64547 17.2667C3.28909 17.3613 2.96421 17.5488 2.70399 17.81C2.44378 18.0712 2.25756 18.3968 2.16435 18.7536C2.07114 19.1103 2.07427 19.4854 2.17344 19.8406C2.27261 20.1957 2.46425 20.5181 2.7288 20.775L12.358 30.1479L10.0871 43.3875L10.0601 43.6167C10.0382 43.9852 10.1148 44.353 10.2818 44.6823C10.4489 45.0116 10.7004 45.2905 11.0108 45.4906C11.3211 45.6907 11.679 45.8048 12.0479 45.821C12.4167 45.8373 12.7833 45.7553 13.1101 45.5833L24.9976 39.3333L36.858 45.5833L37.0663 45.6792C37.4102 45.8146 37.7839 45.8561 38.1491 45.7995C38.5144 45.7428 38.8579 45.59 39.1446 45.3568C39.4313 45.1235 39.6508 44.8182 39.7805 44.4721C39.9103 44.1261 39.9456 43.7517 39.883 43.3875L37.6101 30.1479L47.2434 20.7729L47.4059 20.5958C47.638 20.3099 47.7902 19.9676 47.847 19.6037C47.9037 19.2399 47.863 18.8674 47.729 18.5244C47.595 18.1814 47.3724 17.8801 47.084 17.6511C46.7956 17.4221 46.4516 17.2736 46.0871 17.2208L32.7955 15.2917L26.8538 3.24999C26.6819 2.9011 26.4157 2.60731 26.0854 2.40188C25.7552 2.19644 25.374 2.08755 24.9851 2.08755C24.5961 2.08755 24.2149 2.19644 23.8847 2.40188C23.5544 2.60731 23.2882 2.9011 23.1163 3.24999L17.1726 15.2917Z" fill="#2B4360"/>
</g>
<defs>
<clipPath id="clip0_621_41">
<rect width="50" height="50" fill="white"/>
</clipPath>
</defs>
</svg>
