<svg width="41" height="41" viewBox="0 0 41 41" fill="none" xmlns="http://www.w3.org/2000/svg">
<g clip-path="url(#clip0_632_195)">
<path d="M31.5993 7.53203C34.6988 10.1772 36.7507 13.8431 37.3848 17.8683C38.0188 21.8934 37.1932 26.0126 35.057 29.4826C32.9208 32.9525 29.6146 35.5446 25.7352 36.791C21.8557 38.0374 17.6585 37.8562 13.901 36.2799L13.52 36.1124L5.39004 37.5628L5.20212 37.5816C5.13953 37.5851 5.0768 37.5851 5.01421 37.5816L4.83996 37.5594L4.65546 37.5184L4.47608 37.4552L4.30696 37.3749L4.14808 37.2758L4.12417 37.257L4.10367 37.2451L3.95675 37.1204L3.82521 36.9837L3.71075 36.8334L3.61508 36.6728L3.557 36.5532L3.48867 36.3687L3.44083 36.15L3.42033 35.9758C3.41588 35.9047 3.41588 35.8333 3.42033 35.7622L3.44083 35.5914L3.48183 35.4035L3.55871 35.1951L6.00675 29.5507L5.99137 29.5268C3.93753 26.2112 3.08007 22.2926 3.56146 18.4222C4.04285 14.5519 5.83411 10.9627 8.63758 8.25124L9.00487 7.90445C12.0799 5.10187 16.072 3.51782 20.232 3.44957C24.392 3.38132 28.434 4.83184 31.5993 7.53203ZM16.2294 12.8125C15.5498 12.8125 14.898 13.0825 14.4175 13.563C13.9369 14.0436 13.6669 14.6954 13.6669 15.375V17.0833C13.6669 19.8018 14.7468 22.4089 16.6691 24.3312C18.5913 26.2534 21.1984 27.3333 23.9169 27.3333H25.6252C26.3049 27.3333 26.9566 27.0633 27.4372 26.5828C27.9178 26.1022 28.1877 25.4504 28.1877 24.7708C28.1877 24.0912 27.9178 23.4394 27.4372 22.9589C26.9566 22.4783 26.3049 22.2083 25.6252 22.2083H23.9169L23.6709 22.2203C23.2799 22.2578 22.9028 22.3847 22.5687 22.5911C22.2346 22.7976 21.9524 23.0781 21.7439 23.411L21.6722 23.5374L21.6346 23.5254C20.6758 23.1846 19.805 22.6344 19.0854 21.9148C18.3659 21.1953 17.8157 20.3245 17.4748 19.3657L17.4611 19.3264L17.5892 19.2563C17.9575 19.0258 18.2611 18.7054 18.4714 18.3253C18.6818 17.9451 18.7921 17.5178 18.7919 17.0833V15.375C18.7919 14.6954 18.5219 14.0436 18.0414 13.563C17.5608 13.0825 16.909 12.8125 16.2294 12.8125Z" fill="#F5E9D7"/>
</g>
<defs>
<clipPath id="clip0_632_195">
<rect width="41" height="41" fill="white"/>
</clipPath>
</defs>
</svg>
